<svg width="150" height="88" viewBox="0 0 150 88" fill="none" xmlns="http://www.w3.org/2000/svg">
<path fill-rule="evenodd" clip-rule="evenodd" d="M22.4853 53.3382L22.4844 53.3405C21.7023 55.1496 20.7304 56.3159 19.5893 56.9894C17.8153 58.036 15.7197 57.8857 13.663 57.4725C11.9315 57.1246 10.2208 56.5622 8.67572 56.1171C6.97803 55.6278 5.44509 55.2907 4.23209 55.3468C3.02775 55.4025 2.05666 55.8015 1.33093 56.5622C0.657233 57.2676 0.153473 58.3586 0.0849762 60.0474C-0.0927695 64.4297 -0.197688 68.1018 1.99509 71.6037C3.45173 73.9318 5.94017 76.2156 10.2442 78.5285C17.5595 82.4592 26.4694 81.0703 36.4379 78.363C50.3662 74.58 66.5035 68.2632 83.199 73.2515C95.6622 76.9751 108.165 83.9413 119.167 86.7415C125.03 88.2341 130.493 88.5588 135.353 86.8398C140.261 85.1037 144.614 81.3011 148.097 74.3265C149.941 70.6349 150.317 67.3889 149.769 64.537C148.959 60.3201 146.077 56.9213 142.554 54.2113C139.284 51.6958 135.481 49.7728 132.578 48.2599C130.906 47.388 129.557 46.7101 128.949 46.0967C121.465 38.5408 115.582 24.4244 107.639 13.9509C102.575 7.27457 96.6806 2.05582 89.2325 0.488443C84.2228 -0.565588 78.4865 0.00655413 71.7884 2.98793C65.5712 5.75531 62.2977 9.09647 59.048 11.9313C54.6156 15.7981 50.1798 18.483 36.7439 16.7627C16.5997 14.1835 5.44162 22.1486 2.39394 29.3919C0.892202 32.9616 1.24161 36.4431 3.16473 38.8957C4.19219 40.2067 5.79364 41.3181 7.7159 42.296C10.2425 43.5812 13.3517 44.6679 16.1558 45.931C17.8535 46.6954 19.4341 47.5193 20.6436 48.5308C22.0916 49.7417 22.9344 51.248 22.4853 53.3382ZM25.8451 54.251C26.9636 49.5556 24.4197 46.5079 20.3974 44.2156C17.3844 42.4984 13.5017 41.2164 10.2884 39.7244C8.45722 38.8737 6.84884 37.9864 5.9211 36.8026C4.21907 34.6315 4.74364 31.2649 7.10635 28.1523C11.2448 22.6981 20.8977 18.1891 36.2948 20.1604C51.4231 22.0977 56.3662 18.8493 61.3578 14.4953C64.3907 11.8492 67.4195 8.69312 73.2232 6.10994C79.0954 3.49614 84.1125 2.91495 88.5044 3.83926C95.1591 5.23949 100.325 10.0352 104.848 16.0004C112.884 26.5956 118.885 40.8446 126.456 48.4883C127.05 49.0878 128.15 49.7911 129.593 50.5704C132.438 52.109 136.776 54.1156 140.41 56.9109C143.255 59.0995 145.694 61.768 146.348 65.1733C146.776 67.403 146.414 69.9291 144.973 72.8153C141.994 78.7796 138.373 82.1307 134.176 83.615C129.931 85.1164 125.159 84.7277 120.039 83.4244C109.078 80.6345 96.6269 73.6824 84.2105 69.9728C66.8323 64.7806 50.0098 71.1225 35.5118 75.0598C26.5292 77.4996 18.5046 79.063 11.9124 75.521C8.31677 73.5887 6.17687 71.7516 4.95866 69.8066C3.13872 66.8991 3.41618 63.822 3.56358 60.184C3.58959 59.5411 3.60693 59.0997 3.89653 58.8829C4.18352 58.668 4.59797 58.7457 5.07745 58.8025C5.8552 58.8943 6.74133 59.1298 7.69769 59.4054C13.7263 61.1424 21.8142 63.9141 25.7592 54.5141C25.7948 54.4289 25.8234 54.3409 25.8451 54.251Z" fill="#883130"/>
</svg>
