<svg width="165" height="93" viewBox="0 0 165 93" fill="none" xmlns="http://www.w3.org/2000/svg">
<path fill-rule="evenodd" clip-rule="evenodd" d="M24.7337 36.6314L24.7328 36.6289C23.8725 34.717 22.8033 33.4845 21.5482 32.7727C19.5968 31.6666 17.2915 31.8254 15.0292 32.2621C13.1246 32.6298 11.2428 33.2241 9.54321 33.6945C7.67575 34.2116 5.98951 34.5679 4.6552 34.5086C3.33043 34.4497 2.26224 34.0281 1.46394 33.2241C0.72287 32.4787 0.168736 31.3257 0.0933891 29.5409C-0.102131 24.9097 -0.21754 21.0289 2.19451 17.328C3.79683 14.8677 6.53411 12.4541 11.2686 10.0098C19.3154 5.85573 29.1162 7.3236 40.0816 10.1847C55.4027 14.1827 74.8926 31.2033 93.2576 25.9316C106.967 21.9965 118.981 4.28945 131.084 1.33016C137.532 -0.247223 143.543 -0.590327 148.888 1.22633C154.287 3.06104 159.076 7.07964 162.907 14.4505C164.935 18.3519 165.348 21.7824 164.746 24.7963C163.855 29.2528 160.685 32.8446 156.809 35.7086C153.212 38.367 139.228 42.3872 136.035 43.9861C134.196 44.9075 132.712 45.6239 132.043 46.2722C123.811 54.2574 127.14 67.1879 118.403 78.2565C112.833 85.3121 106.349 90.8274 98.1557 92.4838C92.6451 93.5977 86.3351 92.9931 78.9672 89.8423C72.1282 86.9177 69.8609 79.0864 66.2862 76.0906C61.4106 72.004 56.5312 69.1666 41.7517 70.9846C19.5931 73.7104 5.9857 69.593 2.63324 61.9381C0.981331 58.1657 1.36569 54.4863 3.48113 51.8944C4.61133 50.5089 6.37293 49.3343 8.48742 48.3009C11.2667 46.9427 14.6868 45.7943 17.7713 44.4593C19.6387 43.6516 21.3774 42.7808 22.7079 41.7119C24.3007 40.4322 25.2278 38.8402 24.7337 36.6314ZM28.4295 35.6667C29.6599 40.6288 26.8615 43.8497 22.4371 46.2722C19.1227 48.087 14.8518 49.4419 11.3172 51.0186C9.30286 51.9176 7.53365 52.8553 6.51313 54.1064C4.6409 56.4009 5.21793 59.9588 7.81692 63.2482C12.3692 69.0123 24.3208 69.4772 41.2577 67.3939C57.8988 65.3466 63.3362 68.7794 68.827 73.3808C72.1632 76.1772 74.1614 83.813 80.5454 86.5429C87.0049 89.3052 92.5238 89.9194 97.3548 88.9426C104.675 87.4628 110.357 82.3947 115.333 76.0906C124.172 64.8934 120.973 51.8227 129.301 43.7448C129.954 43.1112 131.165 42.3679 132.751 41.5443C135.881 39.9183 150.453 35.8098 154.451 32.8557C157.58 30.5427 160.263 27.7226 160.983 24.1238C161.454 21.7674 161.055 19.0978 159.47 16.0476C156.193 9.74439 152.21 6.2029 147.593 4.63427C142.924 3.04759 137.675 3.45841 132.043 4.83571C119.985 7.78417 108.028 25.4763 94.3703 29.3966C75.2542 34.8838 55.0108 17.8366 39.063 13.6756C29.182 11.0972 20.355 9.44499 13.1036 13.1882C9.14836 15.2303 6.79448 17.1717 5.45445 19.2273C3.45252 22.2999 3.75773 25.5519 3.91987 29.3966C3.94848 30.0761 3.96755 30.5425 4.2861 30.7716C4.6018 30.9987 5.0577 30.9166 5.58513 30.8566C6.44065 30.7596 7.41539 30.5107 8.46738 30.2194C15.0989 28.3837 23.9955 25.4546 28.3351 35.3886C28.3742 35.4787 28.4057 35.5717 28.4295 35.6667Z" fill="#883130"/>
</svg>
